<svg xmlns="http://www.w3.org/2000/svg" version="1.1" xmlns:xlink="http://www.w3.org/1999/xlink" xmlns:svgjs="http://svgjs.dev/svgjs" width="1000" height="1000" viewBox="0 0 1000 1000"><rect width="1000" height="1000" fill="#ffffff"></rect><g transform="matrix(0.7,0,0,0.7,149.57575757575756,282.1265587044535)"><svg viewBox="0 0 396 247" data-background-color="#d2b2b2" preserveAspectRatio="xMidYMid meet" height="623" width="1000" xmlns="http://www.w3.org/2000/svg" xmlns:xlink="http://www.w3.org/1999/xlink"><g id="tight-bounds" transform="matrix(1,0,0,1,0.2400000000000091,-0.09999999999999432)"><svg viewBox="0 0 395.52 247.2" height="247.2" width="395.52"><g><svg></svg></g><g><svg viewBox="0 0 395.52 247.2" height="247.2" width="395.52"><g><g><path xmlns="http://www.w3.org/2000/svg" d="M190.28 12.048v90.133l-63.093 0v-90.133zM190.28 235.152h-58.54l-62.516-90.133h121.056zM63.768 235.152h-62.768v-90.133l62.768 0zM1 12.048h57.239l62.263 90.133-119.502 0zM394.52 12.048v53.662h-56.589v36.471l-67.646 0v-36.471h-56.589v-53.662zM337.931 235.152h-67.646l0-90.133 67.646 0z" fill="#000000" fill-rule="nonzero" stroke="none" stroke-width="1" stroke-linecap="butt" stroke-linejoin="miter" stroke-miterlimit="10" stroke-dasharray="" stroke-dashoffset="0" font-family="none" font-weight="none" font-size="none" text-anchor="none" style="mix-blend-mode: normal" data-fill-palette-color="tertiary"></path></g></g><g transform="matrix(1,0,0,1,0,107.019567867036)"><svg viewBox="0 0 395.52 33.16086426592798" height="33.16086426592798" width="395.52"><g><svg viewBox="0 0 395.52 33.16086426592798" height="33.16086426592798" width="395.52"><g><svg viewBox="0 0 395.52 33.16086426592798" height="33.16086426592798" width="395.52"><g><svg viewBox="0 0 395.52 33.16086426592798" height="33.16086426592798" width="395.52"><g><svg viewBox="0 0 395.52 33.16086426592798" height="33.16086426592798" width="395.52"><g><svg viewBox="0 0 395.52 33.16086426592798" height="33.16086426592798" width="395.52"><g transform="matrix(1,0,0,1,0,0)"><svg width="395.52" viewBox="2.8499999046325684 -36 541.4500122070312 45.400001525878906" height="33.16086426592798" data-palette-color="#ffffff"><path d="M31.95-34.3L31.95 0 22.95 0 12.65-14.85 12.5-15.2 12.5 0 2.85 0 2.85-34.3 11.65-34.3 22.15-19.1 22.25-18.75 22.25-34.3 31.95-34.3ZM62.2-25.55L62.2-7.4Q62.2-6.45 62.65-6 63.1-5.55 63.75-5.55L63.75-5.55Q64.7-5.55 65.5-6L65.5-6 65.5-0.65Q63.9 0.5 60.45 0.5L60.45 0.5Q57.25 0.5 55.55-0.53 53.85-1.55 53.1-3.55L53.1-3.55Q52.25-2.25 50.3-0.88 48.35 0.5 46 0.5L46 0.5 44.6 0.5Q42.55 0.5 40.82-0.5 39.1-1.5 38.1-3.23 37.1-4.95 37.1-7L37.1-7 37.1-25.55 47-25.55 47-9.55Q47-8.3 47.77-7.43 48.55-6.55 49.65-6.55L49.65-6.55Q50.75-6.55 51.52-7.43 52.3-8.3 52.3-9.55L52.3-9.55 52.3-25.55 62.2-25.55ZM68.7-36L78.6-36 78.6 0 68.7 0 68.7-36ZM83.59-36L93.49-36 93.49 0 83.59 0 83.59-36ZM124.54-34.3L124.54-26.05 115.84-26.05 115.84 0 105.44 0 105.44-26.05 96.74-26.05 96.74-34.3 124.54-34.3ZM172.64-34.3L172.64 0 162.14 0 162.14-22 161.94-22 155.94 0 143.89 0 137.94-22 137.69-22 137.69 0 128.14 0 128.14-34.3 145.34-34.3 150.29-16 150.49-16 155.34-34.3 172.64-34.3ZM209.94-34.3L199.49-20.55 210.24 0 198.49 0 192.54-12.4 188.54-7.6 188.54 0 178.34 0 178.34-34.3 188.54-34.3 188.54-20.75 198.34-34.3 209.94-34.3ZM247.88-34.3L247.88-26.05 239.18-26.05 239.18 0 228.78 0 228.78-26.05 220.08-26.05 220.08-34.3 247.88-34.3ZM264.88-26.05Q268.73-26.05 271.5-24.58 274.28-23.1 275.75-20.5 277.23-17.9 277.23-14.55L277.23-14.55 277.23-11.45 260.58-11.45 260.58-9.05Q260.58-7.35 261.65-6.45 262.73-5.55 264.43-5.55L264.43-5.55Q266.18-5.55 267.1-6.63 268.03-7.7 268.03-9.6L268.03-9.6 277.18-9.6Q277.18-6.75 275.7-4.45 274.23-2.15 271.4-0.83 268.58 0.5 264.73 0.5L264.73 0.5 263.98 0.5Q259.98 0.5 256.8-0.98 253.63-2.45 251.8-5.28 249.98-8.1 249.98-12L249.98-12 249.98-13.55Q249.98-17.45 251.7-20.28 253.43-23.1 256.53-24.58 259.63-26.05 263.63-26.05L263.63-26.05 264.88-26.05ZM264.03-20Q262.58-20 261.58-18.98 260.58-17.95 260.58-16.5L260.58-16.5 260.58-15.8 267.48-15.8 267.48-16.5Q267.48-17.95 266.48-18.98 265.48-20 264.03-20L264.03-20ZM293.98-26.05Q297.68-26.05 300.38-24.65 303.07-23.25 304.5-20.78 305.93-18.3 305.93-15.2L305.93-15.2 297.48-15.2 297.48-16.5Q297.48-17.95 296.48-18.98 295.48-20 294.03-20L294.03-20Q292.57-20 291.57-18.98 290.57-17.95 290.57-16.5L290.57-16.5 290.57-9.05Q290.57-7.6 291.6-6.58 292.63-5.55 294.07-5.55L294.07-5.55 294.68-5.55Q296.13-5.55 297.07-6.55 298.03-7.55 298.03-9.05L298.03-9.05 298.03-10.35 305.93-10.35Q305.93-5.2 302.73-2.35 299.53 0.5 294.03 0.5L294.03 0.5 292.57 0.5Q289.23 0.5 286.32-1.15 283.43-2.8 281.7-5.63 279.98-8.45 279.98-11.75L279.98-11.75 279.98-13.8Q279.98-17.1 281.68-19.93 283.38-22.75 286.25-24.4 289.13-26.05 292.48-26.05L292.48-26.05 293.98-26.05ZM319.52-22.55Q321.92-26.05 325.82-26.05L325.82-26.05 327.22-26.05Q329.27-26.05 331-25.05 332.72-24.05 333.72-22.33 334.72-20.6 334.72-18.55L334.72-18.55 334.72 0 324.82 0 324.82-16Q324.82-17.25 324.05-18.13 323.27-19 322.17-19L322.17-19Q321.07-19 320.3-18.13 319.52-17.25 319.52-16L319.52-16 319.52 0 309.62 0 309.62-36 319.52-36 319.52-22.55ZM357.17-26.05Q359.22-26.05 360.94-25.05 362.67-24.05 363.67-22.33 364.67-20.6 364.67-18.55L364.67-18.55 364.67 0 354.77 0 354.77-16Q354.77-17.25 354-18.13 353.22-19 352.12-19L352.12-19Q351.02-19 350.25-18.13 349.47-17.25 349.47-16L349.47-16 349.47 0 339.57 0 339.57-25.55 347.02-25.55 348.02-21.85Q350.77-26.05 355.77-26.05L355.77-26.05 357.17-26.05ZM383.17-26.05Q386.92-26.05 389.94-24.43 392.97-22.8 394.69-19.9 396.42-17 396.42-13.3L396.42-13.3 396.42-12.25Q396.42-8.5 394.69-5.6 392.97-2.7 389.94-1.1 386.92 0.5 383.17 0.5L383.17 0.5 381.57 0.5Q377.82 0.5 374.79-1.13 371.77-2.75 370.04-5.65 368.32-8.55 368.32-12.25L368.32-12.25 368.32-13.3Q368.32-17 370.04-19.9 371.77-22.8 374.79-24.43 377.82-26.05 381.57-26.05L381.57-26.05 383.17-26.05ZM382.37-20Q380.92-20 379.92-18.98 378.92-17.95 378.92-16.5L378.92-16.5 378.92-9.05Q378.92-7.6 379.92-6.58 380.92-5.55 382.37-5.55L382.37-5.55Q383.82-5.55 384.82-6.58 385.82-7.6 385.82-9.05L385.82-9.05 385.82-16.5Q385.82-17.95 384.82-18.98 383.82-20 382.37-20L382.37-20ZM400.21-36L410.11-36 410.11 0 400.21 0 400.21-36ZM428.76-26.05Q432.51-26.05 435.54-24.43 438.56-22.8 440.29-19.9 442.01-17 442.01-13.3L442.01-13.3 442.01-12.25Q442.01-8.5 440.29-5.6 438.56-2.7 435.54-1.1 432.51 0.5 428.76 0.5L428.76 0.5 427.16 0.5Q423.41 0.5 420.39-1.13 417.36-2.75 415.64-5.65 413.91-8.55 413.91-12.25L413.91-12.25 413.91-13.3Q413.91-17 415.64-19.9 417.36-22.8 420.39-24.43 423.41-26.05 427.16-26.05L427.16-26.05 428.76-26.05ZM427.96-20Q426.51-20 425.51-18.98 424.51-17.95 424.51-16.5L424.51-16.5 424.51-9.05Q424.51-7.6 425.51-6.58 426.51-5.55 427.96-5.55L427.96-5.55Q429.41-5.55 430.41-6.58 431.41-7.6 431.41-9.05L431.41-9.05 431.41-16.5Q431.41-17.95 430.41-18.98 429.41-20 427.96-20L427.96-20ZM472.76-30.15Q472.76-27.25 471.38-25.7 470.01-24.15 467.26-23.4L467.26-23.4Q468.61-22.35 469.33-20.95 470.06-19.55 470.06-18.05L470.06-18.05Q470.06-15.85 468.71-14 467.36-12.15 465.06-11.08 462.76-10 460.06-10L460.06-10 456.61-10Q455.16-10 454.46-9.58 453.76-9.15 453.76-8.5L453.76-8.5Q453.76-7.75 454.36-7.35 454.96-6.95 456.61-6.95L456.61-6.95 464.76-6.95Q468.76-6.95 470.76-4.83 472.76-2.7 472.76 0.85L472.76 0.85Q472.76 3.1 471.38 5.08 470.01 7.05 467.71 8.22 465.41 9.4 462.76 9.4L462.76 9.4 449.51 9.4Q447.06 9.4 445.28 7.65 443.51 5.9 443.51 3.4L443.51 3.4 443.51 3.15Q443.51 1.4 444.61-0.08 445.71-1.55 447.31-2.3L447.31-2.3Q446.21-3.05 445.56-4.2 444.91-5.35 444.91-6.65L444.91-6.65Q444.91-8.5 446.23-10 447.56-11.5 449.51-12L449.51-12Q447.76-13.15 446.71-14.7 445.66-16.25 445.66-18L445.66-18Q445.66-21.55 448.61-23.8 451.56-26.05 457.16-26.05L457.16-26.05 458.56-26.05Q460.36-26.05 461.86-25.75L461.86-25.75Q463.76-27 464.56-28.18 465.36-29.35 465.36-30.15L465.36-30.15 472.76-30.15ZM458.06-21.15Q456.76-21.15 455.88-20.23 455.01-19.3 455.01-18L455.01-18Q455.01-16.7 455.88-15.78 456.76-14.85 458.06-14.85L458.06-14.85Q459.36-14.85 460.23-15.78 461.11-16.7 461.11-18L461.11-18Q461.11-19.3 460.23-20.23 459.36-21.15 458.06-21.15L458.06-21.15ZM454.21 0Q453.16 0 452.43 0.6 451.71 1.2 451.71 2.05L451.71 2.05Q451.71 2.9 452.43 3.53 453.16 4.15 454.21 4.15L454.21 4.15 461.36 4.15Q462.41 4.15 463.13 3.55 463.86 2.95 463.86 2.1L463.86 2.1Q463.86 1.25 463.13 0.63 462.41 0 461.36 0L461.36 0 454.21 0ZM485.16-36L485.16-28.85 475.31-28.85 475.31-36 485.16-36ZM485.16-25.5L485.16 0 475.31 0 475.31-25.5 485.16-25.5ZM503.9-26.05Q507.75-26.05 510.53-24.58 513.3-23.1 514.78-20.5 516.25-17.9 516.25-14.55L516.25-14.55 516.25-11.45 499.6-11.45 499.6-9.05Q499.6-7.35 500.68-6.45 501.75-5.55 503.45-5.55L503.45-5.55Q505.2-5.55 506.13-6.63 507.05-7.7 507.05-9.6L507.05-9.6 516.2-9.6Q516.2-6.75 514.73-4.45 513.25-2.15 510.43-0.83 507.6 0.5 503.75 0.5L503.75 0.5 503 0.5Q499 0.5 495.83-0.98 492.65-2.45 490.83-5.28 489-8.1 489-12L489-12 489-13.55Q489-17.45 490.73-20.28 492.45-23.1 495.55-24.58 498.65-26.05 502.65-26.05L502.65-26.05 503.9-26.05ZM503.05-20Q501.6-20 500.6-18.98 499.6-17.95 499.6-16.5L499.6-16.5 499.6-15.8 506.5-15.8 506.5-16.5Q506.5-17.95 505.5-18.98 504.5-20 503.05-20L503.05-20ZM532.9-26.05Q535.3-26.05 537.83-25.28 540.35-24.5 542.05-22.95 543.75-21.4 543.75-19.2L543.75-19.2Q543.75-18.75 543.7-18.38 543.65-18 543.65-17.9L543.65-17.9 535.45-17.9Q535.45-19.1 534.38-19.63 533.3-20.15 531.95-20.15L531.95-20.15Q528.25-20.15 528.25-18.7L528.25-18.7Q528.25-17.8 529.38-17.48 530.5-17.15 533.1-16.85L533.1-16.85Q536.5-16.45 538.73-15.85 540.95-15.25 542.63-13.53 544.3-11.8 544.3-8.5L544.3-8.5Q544.3-3.8 540.88-1.65 537.45 0.5 532.45 0.5L532.45 0.5 529.85 0.5Q527.05 0.5 524.53-0.38 522-1.25 520.4-3.05 518.8-4.85 518.8-7.45L518.8-7.45 518.8-7.9Q518.8-8.2 518.85-8.35L518.85-8.35 526.95-8.35 526.95-8.15Q526.95-6.7 528.25-6.13 529.55-5.55 531.25-5.55L531.25-5.55Q532.75-5.55 534.13-5.85 535.5-6.15 535.5-7.1L535.5-7.1Q535.5-8.05 534.35-8.43 533.2-8.8 530.55-9.2L530.55-9.2Q527.35-9.6 525.1-10.25 522.85-10.9 521.23-12.63 519.6-14.35 519.6-17.45L519.6-17.45Q519.6-20.35 521.38-22.28 523.15-24.2 525.85-25.13 528.55-26.05 531.35-26.05L531.35-26.05 532.9-26.05Z" opacity="1" transform="matrix(1,0,0,1,0,0)" fill="#000000" class="undefined-text-0" data-fill-palette-color="primary" id="text-0"></path></svg></g></svg></g></svg></g></svg></g></svg></g></svg></g></svg></g></svg></g><defs></defs></svg><rect width="395.52" height="247.2" fill="none" stroke="none" visibility="hidden"></rect></g></svg></g></svg>